<?xml version="1.0" encoding="UTF-8"?>
<svg version="1.1" xmlns="http://www.w3.org/2000/svg" width="199" height="186">
<path d="M0 0 C28.71 0 57.42 0 87 0 C87 28.71 87 57.42 87 87 C58.29 87 29.58 87 0 87 C0 58.29 0 29.58 0 0 Z " fill="#FFFFFF" transform="translate(112,0)"/>
<path d="M0 0 C28.71 0 57.42 0 87 0 C87 28.71 87 57.42 87 87 C58.29 87 29.58 87 0 87 C0 58.29 0 29.58 0 0 Z " fill="#FFFFFF" transform="translate(0,0)"/>
<path d="M0 0 C7.95968563 7.13468942 13.26676932 17.78221139 14.0859375 28.41796875 C14.38360731 42.07944641 11.2667451 53.16110103 1.84765625 63.32421875 C-7.78961609 72.11767462 -18.22137291 75.98956551 -31.21826172 75.79296875 C-43.40379052 75.23284868 -53.70209778 70.24381734 -62.03125 61.30859375 C-70.27342433 50.81479787 -73.35754594 39.59650785 -72.15234375 26.32421875 C-70.46862565 17.97259432 -67.52260648 10.942775 -62.15234375 4.32421875 C-61.65089844 3.69902344 -61.14945313 3.07382813 -60.6328125 2.4296875 C-44.49715342 -15.59042811 -17.82957624 -13.88182978 0 0 Z " fill="#FFFFFF" transform="translate(185.15234375,110.67578125)"/>
<path d="M0 0 C7.76583745 6.12621726 12.74716571 14.95235032 14.91015625 24.54296875 C16.30925391 37.83596853 14.56506179 49.36695701 6.66015625 60.4140625 C-0.25415519 68.82544583 -9.15356006 74.9294187 -20.08984375 76.54296875 C-34.64666849 77.40806005 -45.70004772 75.01136523 -57.28515625 65.796875 C-66.30342099 57.55013481 -70.05565294 47.2806183 -70.9609375 35.359375 C-71.3476263 23.911043 -67.29836244 13.35862046 -60.35546875 4.2734375 C-43.8756521 -13.07572728 -18.92093542 -13.19160544 0 0 Z " fill="#FFFFFF" transform="translate(72.08984375,109.45703125)"/>
</svg>
